<?xml version="1.0" encoding="utf-8"?>
<!-- Generator: Adobe Illustrator 21.0.0, SVG Export Plug-In . SVG Version: 6.00 Build 0)  -->
<svg version="1.1" id="图层_1" xmlns="http://www.w3.org/2000/svg" xmlns:xlink="http://www.w3.org/1999/xlink" x="0px" y="0px"
	 viewBox="0 0 512 512" style="enable-background:new 0 0 512 512;" xml:space="preserve">
<style type="text/css">
	.st0{fill:#FD5844;}
</style>
<title>图标/红/绑定@3x</title>
<desc>Created with Sketch.</desc>
<title>图标/红/不可见@2x</title>
<desc>Created with Sketch.</desc>
<title>图标/红/吃啥@2x</title>
<desc>Created with Sketch.</desc>
<title>图标/红/待评价@2x</title>
<desc>Created with Sketch.</desc>
<title>图标/红/待收货@2x</title>
<desc>Created with Sketch.</desc>
<title>图标/红/电话@2x</title>
<desc>Created with Sketch.</desc>
<title>图标/红/店铺@2x</title>
<desc>Created with Sketch.</desc>
<title>图标/红/订单@2x</title>
<desc>Created with Sketch.</desc>
<title>图标/红/订单记录@2x</title>
<desc>Created with Sketch.</desc>
<title>图标/红/定位@2x</title>
<desc>Created with Sketch.</desc>
<title>图标/红/分类@2x</title>
<desc>Created with Sketch.</desc>
<title>图标/红/分量@2x</title>
<desc>Created with Sketch.</desc>
<title>图标/红/分享@2x</title>
<desc>Created with Sketch.</desc>
<title>图标/红/服饰@2x</title>
<desc>Created with Sketch.</desc>
<title>图标/红/购物车@2x</title>
<desc>Created with Sketch.</desc>
<title>图标/红/购物袋大@2x</title>
<desc>Created with Sketch.</desc>
<title>图标/红/购物袋小@2x</title>
<desc>Created with Sketch.</desc>
<title>图标/红/购物卡@2x</title>
<desc>Created with Sketch.</desc>
<title>图标/红/购物卡转赠@2x</title>
<desc>Created with Sketch.</desc>
<title>图标/红/回放@2x</title>
<desc>Created with Sketch.</desc>
<title>图标/红/会员@2x</title>
<desc>Created with Sketch.</desc>
<title>图标/红/积分@2x</title>
<desc>Created with Sketch.</desc>
<title>图标/红/计生@2x</title>
<desc>Created with Sketch.</desc>
<title>图标/红/加@2x</title>
<desc>Created with Sketch.</desc>
<title>图标/红/减@2x</title>
<desc>Created with Sketch.</desc>
<title>图标/红/解绑@2x</title>
<desc>Created with Sketch.</desc>
<title>图标/红/酒水@2x</title>
<desc>Created with Sketch.</desc>
<title>图标/红/可见@2x</title>
<desc>Created with Sketch.</desc>
<title>图标/红/客服@2x</title>
<desc>Created with Sketch.</desc>
<title>图标/红/礼包@2x</title>
<desc>Created with Sketch.</desc>
<title>图标/红/历史订单@2x</title>
<desc>Created with Sketch.</desc>
<title>图标/红/粮油@2x</title>
<desc>Created with Sketch.</desc>
<title>图标/红/列表展示@2x</title>
<desc>Created with Sketch.</desc>
<title>图标/红/美妆@2x</title>
<desc>Created with Sketch.</desc>
<title>图标/红/密码@3x</title>
<desc>Created with Sketch.</desc>
<title>图标/红/母婴@2x</title>
<desc>Created with Sketch.</desc>
<title>图标/红/难度@2x</title>
<desc>Created with Sketch.</desc>
<title>图标/红/烹饪@2x</title>
<desc>Created with Sketch.</desc>
<title>图标/红/评论@2x</title>
<desc>Created with Sketch.</desc>
<title>图标/红/钱包@2x</title>
<desc>Created with Sketch.</desc>
<title>图标/红/取消@2x</title>
<desc>Created with Sketch.</desc>
<title>图标/红/热卖@2x</title>
<desc>Created with Sketch.</desc>
<title>图标/红/日用品@2x</title>
<desc>Created with Sketch.</desc>
<title>图标/红/扫描@2x</title>
<desc>Created with Sketch.</desc>
<title>图标/红/筛选@2x</title>
<desc>Created with Sketch.</desc>
<title>图标/红/删除@2x</title>
<desc>Created with Sketch.</desc>
<title>图标/红/商品@2x</title>
<desc>Created with Sketch.</desc>
<title>图标/红/上架@2x</title>
<desc>Created with Sketch.</desc>
<title>图标/红/上箭头@2x</title>
<desc>Created with Sketch.</desc>
<title>图标/红/设置@2x</title>
<desc>Created with Sketch.</desc>
<title>图标/红/身份@2x</title>
<desc>Created with Sketch.</desc>
<g id="Symbols_1_">
	<g id="图标_x2F_红_x2F_身份">
		<g id="Page-1" transform="translate(1.000000, 4.000000)">
			<g id="Stroke-1_1_">
				<path class="st0" d="M410.7,400.9H99.3c-24.5,0-44.3-19.3-44.3-43.1V146.2c0-23.8,17.1-43.1,38.1-43.1h323.9
					c21,0,38.1,19.3,38.1,43.1v211.7C455,381.6,435.1,400.9,410.7,400.9z M93.1,128.6c-6.7,0-12.5,8.2-12.5,17.6v211.7
					c0,9.7,8.4,17.6,18.8,17.6h311.3c10.4,0,18.8-7.9,18.8-17.6V146.2c0-9.4-5.9-17.6-12.5-17.6H93.1z"/>
			</g>
			<g id="Stroke-3_1_">
				<path class="st0" d="M267.8,349.9H106.1V322c0-12.2,7.2-23.5,18.5-28.7l22.1-13.3c-7.2-8.5-11.6-19.1-12-30.5l-1.2-29.8
					c0-27,22.2-48.6,49.5-48.6h8.1c27.3,0,49.5,21.6,49.5,48.1l-1.2,30.3c-0.4,11.4-4.8,22-12,30.5l22.7,13.6
					c10.8,5.3,17.8,16.4,17.8,28.3V349.9z M131.6,324.3h110.6V322c0-2.3-1.4-4.5-3.7-5.5l-1.2-0.6l-50.5-30.2l-50.4,30.2
					c-3.4,1.7-4.9,3.8-4.9,6.1V324.3z M182.9,196.7c-13.2,0-23.9,10.1-23.9,22.5l1.2,29.3c0.3,9,5.9,17.3,14.5,21.5l12.3,6.1
					l12.4-6.1c8.6-4.2,14.1-12.4,14.5-21.5l1.2-29.8c0-11.9-10.7-22-24-22H182.9z"/>
			</g>
			<g id="Stroke-5">
				<path class="st0" d="M374.1,230.7h-68.1c-7,0-12.8-5.7-12.8-12.8c0-7,5.7-12.8,12.8-12.8h68.1c7,0,12.8,5.7,12.8,12.8
					C386.9,225,381.2,230.7,374.1,230.7z"/>
			</g>
			<g id="Stroke-7">
				<path class="st0" d="M374.1,298.8h-68.1c-7,0-12.8-5.7-12.8-12.8c0-7,5.7-12.8,12.8-12.8h68.1c7,0,12.8,5.7,12.8,12.8
					C386.9,293.1,381.2,298.8,374.1,298.8z"/>
			</g>
		</g>
	</g>
</g>
</svg>
